<svg width="12" height="24" viewBox="0 0 12 24" fill="none" xmlns="http://www.w3.org/2000/svg">
<path d="M11.9995 2.49995V0.500008C11.9995 0.295917 11.8755 0.111842 11.686 0.0361401C11.6255 0.0117186 11.562 0 11.4996 0C11.3658 0 11.2349 0.053718 11.1383 0.15431L0.138408 11.6541C-0.046136 11.8475 -0.046136 12.1522 0.138408 12.3455L11.1383 23.8453C11.2799 23.9928 11.4967 24.0407 11.6861 23.9635C11.8756 23.8878 11.9996 23.7037 11.9996 23.4996V21.4996C11.9996 21.3717 11.9508 21.2487 11.8629 21.1559L3.18814 11.9998L11.8628 2.84372C11.9507 2.75096 11.9995 2.62791 11.9995 2.49995Z" fill="white"/>
</svg>
