<svg width="12" height="24" viewBox="0 0 12 24" fill="none" xmlns="http://www.w3.org/2000/svg">
<path d="M-1.62125e-05 21.5001V23.5C-1.62125e-05 23.7041 0.124015 23.8882 0.31348 23.9639C0.373995 23.9883 0.437463 24 0.499947 24C0.633725 24 0.764598 23.9463 0.861253 23.8457L11.8611 12.3459C12.0456 12.1525 12.0456 11.8478 11.8611 11.6545L0.861253 0.154667C0.719646 0.00720024 0.502851 -0.040659 0.313386 0.0364971C0.12392 0.112198 -0.000108719 0.296274 -0.000108719 0.500364L-0.000108719 2.50035C-0.000108719 2.62827 0.0487337 2.75132 0.136623 2.84408L8.81137 12.0002L0.13667 21.1563C0.0487814 21.249 -1.62125e-05 21.3721 -1.62125e-05 21.5001Z" fill="white"/>
</svg>
