<svg width="24" height="12" viewBox="0 0 24 12" fill="none" xmlns="http://www.w3.org/2000/svg">
<path d="M21.5001 11.9999H23.5C23.7041 11.9999 23.8882 11.8759 23.9639 11.6864C23.9883 11.6259 24 11.5624 24 11.5C24 11.3662 23.9463 11.2353 23.8457 11.1387L12.3459 0.138805C12.1525 -0.0457393 11.8478 -0.0457393 11.6545 0.138805L0.154715 11.1387C0.0072155 11.2803 -0.0406837 11.4971 0.0365162 11.6865C0.112217 11.876 0.296316 12 0.500416 12H2.50042C2.62831 12 2.75132 11.9512 2.84412 11.8633L12.0002 3.18854L21.1563 11.8632C21.2491 11.9511 21.3721 11.9999 21.5001 11.9999Z" fill="white"/>
</svg>
