<svg width="24" height="12" viewBox="0 0 24 12" fill="none" xmlns="http://www.w3.org/2000/svg">
<path d="M2.49995 0.000499725H0.500008C0.295917 0.000499725 0.111842 0.1245 0.0361401 0.314C0.0117186 0.3745 0 0.438 0 0.5004C0 0.634199 0.053718 0.7651 0.15431 0.8617L11.6541 11.8616C11.8475 12.0461 12.1522 12.0461 12.3455 11.8616L23.8453 0.8617C23.9928 0.7201 24.0407 0.5033 23.9635 0.3139C23.8878 0.1244 23.7037 0.00039959 23.4996 0.00039959H21.4996C21.3717 0.00039959 21.2487 0.0492001 21.1559 0.1371L11.9998 8.81186L2.84372 0.1372C2.75096 0.0493002 2.62791 0.000499725 2.49995 0.000499725Z" fill="white"/>
</svg>
