<svg width="405" height="150" viewBox="0 0 405 150" fill="none" xmlns="http://www.w3.org/2000/svg">
<path d="M295 70V150H325V80C325 74.4772 329.477 70 335 70H365C370.523 70 375 74.4772 375 80V150H405V70C405 53.4315 391.569 40 375 40H325C308.431 40 295 53.4315 295 70Z" fill="#176DE5"/>
<path d="M250 40H200C183.431 40 170 53.4315 170 70V120C170 136.569 183.431 150 200 150H250C266.569 150 280 136.569 280 120V70C280 53.4315 266.569 40 250 40Z" fill="#176DE5"/>
<path d="M200 110V80C200 74.4772 204.477 70 210 70H240C245.523 70 250 74.4772 250 80V110C250 115.523 245.523 120 240 120H210C204.477 120 200 115.523 200 110Z" fill="white"/>
<path d="M125 30V0H155V15C155 23.2843 148.284 30 140 30H125Z" fill="#F23030"/>
<path d="M155 40H125V150C141.569 150 155 136.569 155 120V40Z" fill="#176DE5"/>
<path d="M80 40V30C80 13.4315 93.4315 0 110 0V115C110 134.33 94.33 150 75 150H35C15.67 150 0 134.33 0 115V75C0 55.67 15.67 40 35 40H75V50C75 61.0457 66.0457 70 55 70H40C34.4772 70 30 74.4771 30 80V110C30 115.523 34.4772 120 40 120H70C75.5229 120 80 115.523 80 110V40Z" fill="#176DE5"/>
</svg>
