<svg width="108" height="40" viewBox="0 0 108 40" fill="none" xmlns="http://www.w3.org/2000/svg">
<path d="M78.6667 18.6667V40H86.6667V21.3333C86.6667 19.8606 87.8606 18.6667 89.3334 18.6667H97.3334C98.8062 18.6667 100 19.8606 100 21.3333V40H108V18.6667C108 14.2484 104.418 10.6667 100 10.6667H86.6667C82.2483 10.6667 78.6667 14.2484 78.6667 18.6667Z" fill="white"/>
<path d="M66.6666 10.6667H53.3333C48.9149 10.6667 45.3333 14.2484 45.3333 18.6667V32C45.3333 36.4184 48.9149 40 53.3333 40H66.6666C71.085 40 74.6666 36.4184 74.6666 32V18.6667C74.6666 14.2484 71.085 10.6667 66.6666 10.6667Z" fill="white"/>
<path d="M53.3333 29.3333V21.3333C53.3333 19.8606 54.5271 18.6667 55.9999 18.6667H63.9999C65.4727 18.6667 66.6666 19.8606 66.6666 21.3333V29.3333C66.6666 30.8061 65.4727 32 63.9999 32H55.9999C54.5271 32 53.3333 30.8061 53.3333 29.3333Z" fill="#131313"/>
<path d="M33.3333 8V0H41.3333V4C41.3333 6.20915 39.5423 8 37.3333 8H33.3333Z" fill="#F23030"/>
<path d="M41.3333 10.6667H33.3333V40C37.7517 40 41.3333 36.4184 41.3333 32V10.6667Z" fill="white"/>
<path d="M21.3333 10.6667V8C21.3333 3.58173 24.9151 0 29.3333 0V30.6667C29.3333 35.8213 25.1547 40 20 40H9.33333C4.17867 40 0 35.8213 0 30.6667V20C0 14.8453 4.17867 10.6667 9.33333 10.6667H20V13.3333C20 16.2789 17.6122 18.6667 14.6667 18.6667H10.6667C9.19392 18.6667 8 19.8606 8 21.3333V29.3333C8 30.8061 9.19392 32 10.6667 32H18.6667C20.1394 32 21.3333 30.8061 21.3333 29.3333V10.6667Z" fill="white"/>
</svg>
