<svg id="icons" enable-background="new 0 0 64 64" height="512" viewBox="0 0 64 64" width="512" xmlns="http://www.w3.org/2000/svg"><path d="m63 28.495v22.01c-1.65 0-2.99 1.34-2.99 2.99h-12.01c-.011-1.65-1.341-2.99-2.99-3v-22c1.66-.01 2.99-1.34 2.99-2.99l15-.01zm-5 11.01c0-2.21-1.79-4-4-4-2.211 0-4 1.79-4 4 0 2.2 1.789 4 4 4 2.21 0 4-1.8 4-4z" fill="#a0d468"/><g fill="#8cc152"><path d="m60.01 53.495h2.99v3h-18v-3h.01 2.99z"/><path d="m45 56.495h18v3h-18z"/><path d="m63 50.505v2.99h-2.99c0-1.65 1.34-2.99 2.99-2.99z"/><path d="m45.01 50.495c1.649.01 2.979 1.35 2.99 3h-2.99z"/><path d="m45.01 25.505h2.99c0 1.65-1.33 2.98-2.99 2.99z"/><path d="m63 25.505v2.99c-1.65 0-2.98-1.33-2.99-2.99z"/><path d="m54 35.505c2.21 0 4 1.79 4 4 0 2.2-1.79 4-4 4-2.211 0-4-1.8-4-4 0-2.21 1.789-4 4-4z"/></g><path d="m17 4.505 1 4h-6.001l1-4z" fill="#ccd1d9"/><path d="m26 4.505 3 4h-11l-1-4z" fill="#f6bb42"/><path d="m12.999 4.505-1 4h-10.999l3-4z" fill="#f6bb42"/><path d="m11.999 8.505h6.001v4h-6.001z" fill="#e6e9ed"/><path d="m29 8.505v23h-28v-23h10.999v4h6.001v-4z" fill="#ffce54"/><path d="m13.976 48.481c-.553 0-1-.447-1-1v-12c0-.553.447-1 1-1s1 .447 1 1v12c0 .553-.448 1-1 1z" fill="#545c66"/><path d="m40.98 48.481h-27.004c-.553 0-1-.447-1-1s.447-1 1-1h27.004c.553 0 1 .447 1 1s-.447 1-1 1z" fill="#545c66"/><path d="m37.98 51.481c-.256 0-.512-.098-.707-.293-.391-.391-.391-1.023 0-1.414l3-3c.391-.391 1.023-.391 1.414 0s.391 1.023 0 1.414l-3 3c-.195.196-.451.293-.707.293z" fill="#656d78"/><path d="m40.98 48.481c-.256 0-.512-.098-.707-.293l-3-3c-.391-.391-.391-1.023 0-1.414s1.023-.391 1.414 0l3 3c.391.391.391 1.023 0 1.414-.195.196-.451.293-.707.293z" fill="#656d78"/><path d="m53.986 22.481c-.553 0-1-.447-1-1v-12c0-.553.447-1 1-1s1 .447 1 1v12c0 .553-.447 1-1 1z" fill="#545c66"/><path d="m53.986 10.481h-21.007c-.553 0-1-.447-1-1s.447-1 1-1h21.008c.553 0 1 .447 1 1s-.448 1-1.001 1z" fill="#545c66"/><path d="m32.979 10.481c-.256 0-.512-.098-.707-.293-.391-.391-.391-1.023 0-1.414l3-3c.391-.391 1.023-.391 1.414 0s.391 1.023 0 1.414l-3 3c-.196.196-.452.293-.707.293z" fill="#656d78"/><path d="m35.979 13.481c-.256 0-.512-.098-.707-.293l-3-3c-.391-.391-.391-1.023 0-1.414s1.023-.391 1.414 0l3 3c.391.391.391 1.023 0 1.414-.196.196-.452.293-.707.293z" fill="#656d78"/><path d="m16.999 13.506h-3.996c-.553 0-1-.447-1-1s.447-1 1-1h3.996c.553 0 1 .447 1 1s-.447 1-1 1z" fill="#e6e9ed"/><path d="m13.002 25.505h-8.002c-.553 0-1-.447-1-1s.447-1 1-1h8.002c.553 0 1 .447 1 1s-.447 1-1 1z" fill="#edab37"/><path d="m9.001 28.505h-4.001c-.553 0-1-.447-1-1s.447-1 1-1h4.001c.553 0 1 .447 1 1s-.447 1-1 1z" fill="#edab37"/><path d="m45 54.496h18v1h-18z" fill="#a0d468"/><path d="m45 56.495h18v1h-18z" fill="#a0d468"/><path d="m45 58.494h18v1h-18z" fill="#a0d468"/></svg>