<svg width="64" height="64" viewBox="0 0 64 64" fill="none" xmlns="http://www.w3.org/2000/svg">
<g clip-path="url(#clip0)">
<path d="M54.6274 9.37264C48.5833 3.32863 40.5475 0 31.9999 0C23.4524 0 15.4167 3.32863 9.37264 9.37264C3.32863 15.4167 0 23.4524 0 31.9999C0 40.5475 3.32851 48.5835 9.37264 54.6274C15.4168 60.6712 23.4525 64 32.0001 64C40.5476 64 48.5835 60.6715 54.6275 54.6274C60.6715 48.5832 64.0001 40.5475 64.0001 31.9999C64.0001 23.4524 60.6715 15.4167 54.6274 9.37264Z" fill="#3F54C0"/>
<path d="M31.9999 0C23.4525 0 15.4167 3.32863 9.37264 9.37264C3.32863 15.4167 0 23.4524 0 31.9999C0 40.5475 3.32851 48.5835 9.37264 54.6274C15.4168 60.6712 23.4525 64 32.0001 64L31.9999 0Z" fill="#5F7BF0"/>
<path d="M32.0001 7.48389C18.4818 7.48389 7.48389 18.4818 7.48389 32.0001C7.48389 45.5183 18.4819 56.5162 32.0001 56.5162C45.5182 56.5162 56.5162 45.5183 56.5162 32.0001C56.5162 18.4818 45.5183 7.48389 32.0001 7.48389Z" fill="#ECECEC"/>
<path d="M32.0001 7.48389C18.4818 7.48389 7.48389 18.4818 7.48389 32.0001C7.48389 45.5183 18.4819 56.5162 32.0001 56.5162V7.48389Z" fill="white"/>
<path d="M43.2968 37.4756H30.6224C29.4812 37.4756 28.5559 36.5504 28.5559 35.4091V22.6246C28.5559 21.4834 29.4812 20.5581 30.6224 20.5581C31.7637 20.5581 32.6889 21.4834 32.6889 22.6246V33.3427H43.2968C44.4381 33.3427 45.3633 34.268 45.3633 35.4092C45.3633 36.5504 44.4381 37.4756 43.2968 37.4756Z" fill="#FF1E1E"/>
<path d="M32.0001 37.4756H30.6224C29.4812 37.4756 28.5559 36.5504 28.5559 35.4091V22.6246C28.5559 21.4834 29.4812 20.5581 30.6224 20.5581C31.1518 20.5581 31.6347 20.7572 32.0003 21.0845L32.0001 37.4756Z" fill="#FF7F55"/>
</g>
<defs>
<clipPath id="clip0">
<rect width="64" height="64" fill="white"/>
</clipPath>
</defs>
</svg>
