<svg width="64" height="64" viewBox="0 0 64 64" fill="none" xmlns="http://www.w3.org/2000/svg">
<g clip-path="url(#clip0)">
<path d="M52.282 31.1377L50.6563 17.9312L47.6098 18.3062L47.6111 18.304L41.7048 14.9802C41.0748 14.6257 40.3518 14.4714 39.632 14.5379L30.3062 15.4004C29.1599 15.5064 28.1355 16.1605 27.5571 17.156L20.9842 28.4695C20.4988 29.3049 20.8798 30.3762 21.7837 30.7176L22.0525 30.8191C22.5698 31.0145 23.1014 31.1276 23.6328 31.1719L22.7999 31.8972L21.1337 33.349L16.3946 37.3915C15.5509 38.1263 15.4633 39.4051 16.1982 40.2487L16.6789 40.7993C17.6227 41.8816 19.2653 41.9939 20.3495 41.0499L22.1608 43.1274C22.7497 43.8037 23.6124 44.1028 24.4413 44.0008C24.9394 43.9396 25.4254 43.7331 25.8313 43.3781L27.6405 45.4557C28.2315 46.1337 29.0941 46.4308 29.923 46.3288C30.4211 46.2674 30.9072 46.0629 31.3132 45.708L32.2965 46.5578C33.2405 47.6419 34.885 47.754 35.9692 46.81L37.3058 45.6439L48.5428 36.8925L48.5549 36.8813L52.9884 36.877L52.282 31.1377Z" fill="#F29F5C"/>
<path d="M47.4662 33.4791L47.4541 33.4902L36.2171 42.2417L34.8805 43.4078C33.7964 44.3518 32.1518 44.2396 31.2078 43.1555L30.2245 42.3058C29.8185 42.6607 29.3323 42.8653 28.8343 42.9265C28.0054 43.0285 27.1429 42.7314 26.5518 42.0534L24.7425 39.9758C24.3365 40.3307 23.8505 40.5372 23.3525 40.5985C22.5237 40.7005 21.6609 40.4015 21.0721 39.7252L19.2608 37.6477C18.3326 38.4559 16.9961 38.4874 16.0382 37.8011C15.547 38.5418 15.5862 39.5458 16.1986 40.2488L16.6793 40.7994C17.6231 41.8817 19.2657 41.994 20.3499 41.05L22.1612 43.1275C22.75 43.8038 23.6128 44.1029 24.4417 44.0009C24.9398 43.9397 25.4257 43.7332 25.8317 43.3782L27.6409 45.4559C28.2319 46.1339 29.0945 46.431 29.9234 46.329C30.4215 46.2676 30.9076 46.0631 31.3136 45.7083L32.2969 46.558C33.2409 47.6421 34.8854 47.7543 35.9696 46.8103L37.3062 45.6441L48.5432 36.8927L48.5553 36.8816L52.9888 36.8772L52.4983 32.8927L47.4662 33.4791Z" fill="#D37D42"/>
<path d="M49.5124 39.1915L43.4918 34.0003L41.8176 32.5578L40.6196 31.526L35.4688 27.086L36.0636 22.0223C36.2649 20.3097 35.1868 18.7063 33.5248 18.2464L22.2967 15.1396C21.1087 14.8108 19.8531 15.3621 19.2911 16.4592L17.8791 19.2154L11.8181 18.8041L10.2656 32.0195L9.59085 37.7626L15.4906 38.155L15.5028 38.1661L27.828 48.7902L29.1712 49.9489C30.2605 50.8869 31.9044 50.7657 32.8424 49.6763L34.6399 47.5906C35.0478 47.9432 35.5351 48.1451 36.0336 48.2037C36.863 48.3012 37.724 47.9992 38.3112 47.318L40.109 45.2303C40.5169 45.583 41.004 45.7868 41.5025 45.8453C42.3318 45.9428 43.193 45.639 43.7781 44.9593L45.5777 42.8718C46.6671 43.8098 48.3091 43.6883 49.2468 42.6008L49.7246 42.0475C50.4548 41.2 50.3601 39.9217 49.5124 39.1915Z" fill="#F9C295"/>
<path d="M49.5124 39.1915L47.6785 37.6102C48.2745 38.4006 48.2623 39.525 47.5897 40.3057L47.0825 40.8931C46.0871 42.0475 44.3441 42.1765 43.1876 41.1807L41.2771 43.3967C40.656 44.1181 39.7418 44.4406 38.8613 44.3372C38.3322 44.2751 37.8151 44.0587 37.3821 43.6843L35.4736 45.9006C34.8502 46.6237 33.9364 46.9442 33.0559 46.8408C32.5267 46.7787 32.0094 46.5643 31.5764 46.19L29.6681 48.4042C29.3086 48.8218 28.8508 49.1032 28.3589 49.2482L29.1713 49.9491C30.2606 50.8871 31.9045 50.7658 32.8425 49.6764L34.64 47.5907C35.0479 47.9433 35.5352 48.1452 36.0337 48.2038C36.8631 48.3012 37.7241 47.9993 38.3113 47.3181L40.1091 45.2305C40.517 45.5831 41.0041 45.787 41.5026 45.8455C42.3319 45.943 43.1931 45.6391 43.7782 44.9595L45.5778 42.872C46.6672 43.81 48.3092 43.6885 49.2469 42.601L49.7247 42.0476C50.4548 41.2 50.36 39.9217 49.5124 39.1915Z" fill="#E59F6A"/>
<path d="M46.1873 42.1769L42.8884 39.3324C42.4965 38.9944 41.9044 39.0382 41.5661 39.4303C41.228 39.8224 41.2719 40.4144 41.664 40.7525L44.9571 43.592L45.5778 42.872C45.8256 43.0854 46.1027 43.241 46.3928 43.3459C46.607 42.9648 46.5311 42.4733 46.1873 42.1769Z" fill="#E59F6A"/>
<path d="M40.9127 45.7033C41.1386 45.3201 41.0662 44.819 40.7175 44.5183L37.754 41.9631C37.3619 41.6251 36.77 41.6689 36.4317 42.061C36.0936 42.4531 36.1375 43.0451 36.5296 43.3833L39.4931 45.9384C39.4944 45.9394 39.4956 45.9403 39.4969 45.9413L40.1091 45.2303C40.3532 45.4414 40.6262 45.598 40.9127 45.7033Z" fill="#E59F6A"/>
<path d="M15.7981 38.1418L15.084 39.0848C14.3063 40.1116 14.5083 41.5745 15.5352 42.3523C16.5621 43.1299 18.0249 42.9279 18.8027 41.901L19.5168 40.958C20.2944 39.9311 20.0924 38.4683 19.0656 37.6905C18.0387 36.9129 16.5757 37.1149 15.7981 38.1418Z" fill="#F29F5C"/>
<path d="M20.1476 40.1251L18.8027 41.9009C18.0251 42.9278 18.2271 44.3907 19.254 45.1684C20.2808 45.946 21.7437 45.744 22.5214 44.7172L23.8663 42.9413C24.6439 41.9144 24.4419 40.4515 23.4151 39.6738C22.3881 38.8962 20.9252 39.0982 20.1476 40.1251Z" fill="#F29F5C"/>
<path d="M24.3542 42.2969L22.5213 44.7171C21.7437 45.744 21.9457 47.2068 22.9726 47.9846C23.9994 48.7622 25.4623 48.5602 26.24 47.5333L28.0729 45.1131C28.8505 44.0862 28.6485 42.6234 27.6217 41.8456C26.5948 41.0679 25.1319 41.27 24.3542 42.2969Z" fill="#F29F5C"/>
<path d="M28.1793 44.9727L26.24 47.5333C25.4624 48.5602 25.6644 50.0231 26.6913 50.8008C27.7181 51.5784 29.181 51.3764 29.9588 50.3496L31.898 47.7889C32.6756 46.7621 32.4736 45.2992 31.4468 44.5215C30.4198 43.7438 28.9569 43.9458 28.1793 44.9727Z" fill="#F29F5C"/>
<path d="M47.6111 18.304L41.7049 14.9802C41.0749 14.6257 40.3519 14.4714 39.632 14.5379L30.3063 15.4004C29.1599 15.5064 28.1355 16.1605 27.5572 17.156L20.9842 28.4695C20.4988 29.305 20.8798 30.3762 21.7837 30.7176L22.0525 30.8191C24.4619 31.7291 27.1829 30.9547 28.752 28.9126L31.2704 25.6351C31.2704 25.6351 37.324 32.6442 43.989 24.4589" fill="#F29F5C"/>
<path d="M63.9929 38.6429L60.9038 13.5492C60.8734 13.3024 60.7463 13.0778 60.5503 12.9248C60.3543 12.7718 60.1057 12.7031 59.8588 12.7333L52.6353 13.6226C50.7592 13.8535 49.4208 15.5678 49.6518 17.4438L52.1323 37.5937C52.3458 39.3283 53.8272 40.6032 55.5323 40.6032C55.6713 40.6032 55.8122 40.5947 55.9536 40.5773L63.1771 39.6881C63.6908 39.6247 64.0562 39.1568 63.9929 38.6429Z" fill="#5C9CEE"/>
<path d="M63.9929 38.643L63.6537 35.8885C63.5 36.1141 63.2545 36.2754 62.9623 36.3114L55.3902 37.2435C55.2419 37.2618 55.0943 37.2706 54.9485 37.2706C53.6735 37.2706 52.5184 36.5904 51.8794 35.5406L52.1322 37.5936C52.3457 39.3283 53.827 40.6031 55.5322 40.6031C55.6712 40.6031 55.812 40.5946 55.9534 40.5773L63.1769 39.688C63.6907 39.6248 64.0561 39.1569 63.9929 38.643Z" fill="#3580D3"/>
<path d="M11.3647 13.6225L4.14123 12.7332C3.8941 12.7028 3.64573 12.7717 3.44973 12.9247C3.25373 13.0777 3.1266 13.3023 3.09623 13.5491L0.00711693 38.643C-0.0561328 39.1569 0.309241 39.6247 0.822989 39.688L8.04646 40.5772C8.18796 40.5946 8.32858 40.6031 8.46771 40.6031C10.1727 40.6031 11.6542 39.3281 11.8677 37.5936L14.3482 17.4437C14.5792 15.5677 13.2408 13.8535 11.3647 13.6225Z" fill="#ED5575"/>
<path d="M0.00711886 38.643L0.346243 35.8885C0.499992 36.1141 0.745491 36.2754 1.03774 36.3114L8.60983 37.2435C8.75808 37.2618 8.90571 37.2706 9.05146 37.2706C10.3265 37.2706 11.4816 36.5904 12.1206 35.5406L11.8678 37.5936C11.6543 39.3283 10.173 40.6031 8.46784 40.6031C8.32884 40.6031 8.18796 40.5946 8.04659 40.5773L0.823116 39.688C0.309118 39.6248 -0.0561309 39.1569 0.00711886 38.643Z" fill="#CC3A60"/>
<path d="M57.9998 36.4372C59.0006 36.4372 59.812 35.6259 59.812 34.625C59.812 33.6241 59.0006 32.8127 57.9998 32.8127C56.9989 32.8127 56.1875 33.6241 56.1875 34.625C56.1875 35.6259 56.9989 36.4372 57.9998 36.4372Z" fill="#EBEEF2"/>
<path d="M5.89873 36.4372C6.8996 36.4372 7.71097 35.6259 7.71097 34.625C7.71097 33.6241 6.8996 32.8127 5.89873 32.8127C4.89786 32.8127 4.08649 33.6241 4.08649 34.625C4.08649 35.6259 4.89786 36.4372 5.89873 36.4372Z" fill="#EBEEF2"/>
</g>
<defs>
<clipPath id="clip0">
<rect width="64" height="64" fill="white"/>
</clipPath>
</defs>
</svg>
