<svg width="64" height="64" viewBox="0 0 64 64" fill="none" xmlns="http://www.w3.org/2000/svg">
<path d="M54.5501 20.5983H41.3352V44.5496H62.9868V33.7692L60.4616 25.0419C59.7004 22.4101 57.2899 20.5983 54.5501 20.5983Z" fill="#FF7058"/>
<path d="M59.8257 33.6585L57.5752 25.8791C57.1873 24.5419 55.9434 23.606 54.5501 23.606H44.343V33.6585H59.8257Z" fill="#84DBFF"/>
<path d="M59.8283 33.6546H44.3376V23.6021L59.8283 33.6546Z" fill="#CDD6E0"/>
<path d="M59.8257 33.6585L57.5752 25.8791C57.1873 24.5419 55.9434 23.606 54.5501 23.606H44.343L59.8257 33.6585Z" fill="#F2F2F2"/>
<path d="M3.99966 8.57397H37.3355C39.5433 8.57397 41.3352 10.3644 41.3352 12.5736V44.5483H0V12.5736C0 10.3646 1.79047 8.57397 3.99966 8.57397Z" fill="#FFD15C"/>
<path d="M27.0911 8.58069V19.1491L25.5445 17.6026L23.9234 19.2238L22.3035 17.6026L20.6837 19.2238L19.0611 17.6026L17.4199 19.2238L15.8013 17.6026L14.2362 19.1678V8.58069H27.0911Z" fill="#F2F2F2"/>
<path d="M64 44.5469V49.0665H0.00537109V44.5469H6.68481C8.24468 41.7471 11.2444 39.8539 14.6841 39.8539C18.1105 39.8539 21.1102 41.7471 22.6835 44.5469H44.175C45.7349 41.7471 48.72 39.8539 52.1597 39.8539C55.5994 39.8539 58.5858 41.7471 60.1591 44.5469H64Z" fill="#334A5E"/>
<path d="M58.5471 49.0385C58.5471 52.5662 55.6873 55.4259 52.1596 55.4259C48.6319 55.4259 45.7748 52.5662 45.7748 49.0385C45.7748 45.5108 48.6332 42.651 52.1596 42.651C55.6887 42.651 58.5471 45.5108 58.5471 49.0385Z" fill="#40596B"/>
<path d="M54.7274 49.0386C54.7274 50.4558 53.5781 51.6037 52.1622 51.6037C50.745 51.6037 49.5944 50.4558 49.5944 49.0386C49.5944 47.6213 50.7437 46.4734 52.1622 46.4734C53.5781 46.4721 54.7274 47.6214 54.7274 49.0386Z" fill="#ACB3BA"/>
<path d="M21.0662 49.0385C21.0662 52.5662 18.2051 55.4259 14.6788 55.4259C11.1511 55.4259 8.29132 52.5662 8.29132 49.0385C8.29132 45.5108 11.1511 42.651 14.6788 42.651C18.2051 42.651 21.0662 45.5108 21.0662 49.0385Z" fill="#40596B"/>
<path d="M17.2439 49.0385C17.2439 50.4558 16.096 51.6037 14.6788 51.6037C13.2615 51.6037 12.1124 50.4558 12.1124 49.0385C12.1124 47.6213 13.2616 46.4734 14.6788 46.4734C16.0959 46.4734 17.2439 47.6214 17.2439 49.0385Z" fill="#ACB3BA"/>
</svg>
