<svg width="64" height="64" viewBox="0 0 64 64" fill="none" xmlns="http://www.w3.org/2000/svg">
<g clip-path="url(#clip0)">
<path d="M12.1379 44.1379C12.1379 55.1075 21.0306 64 32.0001 64C42.9696 64 51.8622 55.1075 51.8622 44.1379C51.8622 33.1034 46.3449 24.2758 50.0467 16.5516C50.0467 16.5516 44.1379 17.6551 40.8277 26.4826C40.8277 26.4826 29.7932 15.4481 34.4034 -0.00012207C34.4034 -0.00012207 23.1726 4.41363 24.3471 18.7585C25.3543 31.0593 23.1726 33.1034 23.1726 33.1034C23.1726 23.1724 15.4082 18.7585 15.4082 18.7585C17.6552 30.8965 12.1379 34.2069 12.1379 44.1379Z" fill="#FFB446"/>
<path d="M46.3369 48.8417C46.3369 57.1033 39.9578 64.1562 31.6976 63.9968C23.9241 63.8471 18.1405 57.9326 18.7587 50.2067C19.0345 46.7585 21.6552 41.1722 25.931 35.5171L28.7816 37.2412C28.6895 30.2528 31.9999 20.9655 31.9999 20.9655C34.1744 30.7508 46.3369 33.2872 46.3369 48.8417Z" fill="#FFDC64"/>
<path d="M26.4827 41.9309C25.3792 48.5517 23.1724 50.9621 23.1724 55.1723C23.1724 59.5862 27.1247 64 32 64C36.9105 64 40.8411 59.9878 40.8275 55.0773C40.7906 41.8888 33.1035 35.3103 33.1035 35.3103C34.207 41.9311 30.8966 45.2413 30.8966 45.2413C29.5176 43.1731 26.4827 41.9309 26.4827 41.9309Z" fill="white"/>
</g>
<defs>
<clipPath id="clip0">
<rect width="64" height="64" fill="white"/>
</clipPath>
</defs>
</svg>
