<svg width="64" height="64" viewBox="0 0 64 64" fill="none" xmlns="http://www.w3.org/2000/svg">
<g clip-path="url(#clip0)">
<path d="M51.2 45.3333C55.3237 45.3333 58.6666 41.9903 58.6666 37.8666C58.6666 33.7429 55.3237 30.4 51.2 30.4C47.0763 30.4 43.7334 33.7429 43.7334 37.8666C43.7334 41.9903 47.0763 45.3333 51.2 45.3333Z" fill="#FDB62F"/>
<path d="M33.0667 8H30.9333V28.2666H33.0667V8Z" fill="#6B962A"/>
<path d="M32 7.99995H29.8666C25.7429 7.99995 22.4 4.65708 22.4 0.533325H24.5334C28.6571 0.533325 32 3.8762 32 7.99995Z" fill="#88B337"/>
<path d="M37.3334 32.5334H22.4V36.8001H37.3334V32.5334Z" fill="#FFA83D"/>
<path d="M39.4668 36.7999H24.5334V41.0666H39.4668V36.7999Z" fill="#FDB62F"/>
<path d="M37.3334 41.0667H22.4V45.3333H37.3334V41.0667Z" fill="#FFA83D"/>
<path d="M39.4668 45.3334H24.5334V49.6H39.4668V45.3334Z" fill="#FDB62F"/>
<path d="M39.4668 49.6H24.5334V53.8666H39.4668V49.6Z" fill="#FFA83D"/>
<path d="M41.6 53.8667H26.6666V58.1333H41.6V53.8667Z" fill="#FDB62F"/>
<path d="M39.4668 58.1333H24.5334V62.3999H39.4668V58.1333Z" fill="#FFA83D"/>
<path d="M19.2001 11.2001H21.3334C27.2247 11.2001 32.0001 15.9756 32.0001 21.8667H29.8667C23.9756 21.8667 19.2001 17.0913 19.2001 11.2001Z" fill="#88B337"/>
<path d="M41.6 0.533325H39.4666C35.3429 0.533325 32 3.8762 32 7.99995H34.1334C38.2571 7.99995 41.6 4.65708 41.6 0.533325Z" fill="#6B962A"/>
<path d="M34.1334 21.8666H32C32 15.9753 36.7755 11.2 42.6666 11.2H44.8C44.8 17.0912 40.0245 21.8666 34.1334 21.8666Z" fill="#6B962A"/>
<path d="M18.1334 41.0667H3.20007V45.3333H18.1334V41.0667Z" fill="#FDB62F"/>
<path d="M18.1334 45.3334H3.20007V49.6H18.1334V45.3334Z" fill="#FFA83D"/>
<path d="M20.2667 49.6H5.33337V53.8666H20.2667V49.6Z" fill="#FDB62F"/>
<path d="M18.1334 53.8667H3.20007V58.1333H18.1334V53.8667Z" fill="#FFA83D"/>
<path d="M20.2667 58.1333H5.33337V62.3999H20.2667V58.1333Z" fill="#FDB62F"/>
<path d="M58.6668 45.3334H43.7334V49.6H58.6668V45.3334Z" fill="#FDB62F"/>
<path d="M60.8001 49.6H45.8667V53.8666H60.8001V49.6Z" fill="#FFA83D"/>
<path d="M60.8001 53.8667H45.8667V58.1333H60.8001V53.8667Z" fill="#FDB62F"/>
<path d="M60.8001 58.1333H45.8667V62.3999H60.8001V58.1333Z" fill="#FFA83D"/>
<path d="M51.2 42.1332C53.5564 42.1332 55.4666 40.223 55.4666 37.8666C55.4666 35.5102 53.5564 33.6 51.2 33.6C48.8436 33.6 46.9333 35.5102 46.9333 37.8666C46.9333 40.223 48.8436 42.1332 51.2 42.1332Z" fill="#FFA83D"/>
<path d="M51.2 42.1333V40C52.3786 40 53.3333 39.0453 53.3333 37.8666H55.4667C55.4666 40.2228 53.5562 42.1333 51.2 42.1333Z" fill="#FD7B2F"/>
<path d="M49.0666 37.8666H46.9332C46.9332 35.5104 48.8436 33.6 51.1999 33.6V35.7334C50.0214 35.7334 49.0666 36.688 49.0666 37.8666Z" fill="#FD7B2F"/>
<path d="M53.3334 11.2C52.9708 9.01125 51.2555 7.296 49.0668 6.93337C51.2555 6.57075 52.9708 4.8555 53.3334 2.66675C53.696 4.8555 55.4113 6.57075 57.6 6.93337C55.4113 7.296 53.696 9.01125 53.3334 11.2Z" fill="#FDB62F"/>
<path d="M10.6666 34.6666C10.304 32.4778 8.58877 30.7626 6.40002 30.3999C8.58877 30.0373 10.304 28.3221 10.6666 26.1333C11.0293 28.3221 12.7445 30.0373 14.9333 30.3999C12.7445 30.7626 11.0294 32.4778 10.6666 34.6666Z" fill="#FDB62F"/>
<path d="M39.4668 28.2666H24.5334V32.5332H39.4668V28.2666Z" fill="#FDB62F"/>
<path d="M64 25.0666H60.8V21.8666H58.6667V25.0666H55.4667V27.2H58.6667V30.4H60.8V27.2H64V25.0666Z" fill="#FDB62F"/>
<path d="M64 61.3334H0V63.4668H64V61.3334Z" fill="#DBDBDB"/>
<path d="M21.3333 25.0666C17.7985 25.0666 14.9333 22.2015 14.9333 18.6666V17.6H17.0667V18.6666C17.0667 21.0228 18.9771 22.9332 21.3333 22.9332V25.0666Z" fill="#DBDBDB"/>
</g>
<defs>
<clipPath id="clip0">
<rect width="64" height="64" fill="white"/>
</clipPath>
</defs>
</svg>
