<svg width="64" height="64" viewBox="0 0 64 64" fill="none" xmlns="http://www.w3.org/2000/svg">
<g clip-path="url(#clip0)">
<path d="M31.8936 5.49744C17.3153 5.49744 5.49683 17.3155 5.49683 31.8938C5.49683 46.4722 17.3153 58.2906 31.8936 58.2906C46.472 58.2906 58.29 46.4722 58.29 31.8938C58.2625 17.3265 46.461 5.52493 31.8936 5.49744Z" fill="white"/>
<path d="M49.7619 51.3151C39.6606 60.6122 24.1194 60.6122 14.0181 51.3151C24.1194 42.0184 39.6606 42.0184 49.7619 51.3151Z" fill="#FE7F3E"/>
<path d="M34.0608 35.6495C32.3031 37.2732 29.338 36.1369 28.1379 34.061C26.9377 31.9856 27.4318 28.8509 29.7264 28.1381L48.4065 22.3632L34.0608 35.6495Z" fill="#FE7F3E"/>
<path d="M31.8937 -0.108276C14.2195 -0.108276 -0.108398 14.2196 -0.108398 31.8938C-0.108398 49.5679 14.2195 63.8958 31.8937 63.8958C49.5678 63.8958 63.8957 49.5679 63.8957 31.8938C63.8648 14.2323 49.5551 -0.0773945 31.8937 -0.108276ZM31.8937 58.2834C17.743 58.2542 6.1217 47.0915 5.52521 32.9527H8.34942C8.93364 32.9527 9.40829 32.4784 9.40829 31.8938C9.40829 31.3091 8.93406 30.8349 8.34942 30.8349H5.52521C5.6792 26.9214 6.70972 23.0929 8.53979 19.6307L11.0108 21.0428C11.5176 21.3352 12.1657 21.1613 12.458 20.6545C12.7503 20.1477 12.5769 19.4996 12.0696 19.2073L9.61304 17.7952C11.7012 14.5014 14.4869 11.7055 17.7743 9.60597L19.186 12.0626C19.4783 12.5694 20.1264 12.7432 20.6332 12.4509C21.1404 12.1586 21.3139 11.5105 21.0216 11.0037L19.6095 8.5471C23.0775 6.71154 26.9136 5.67848 30.8348 5.52533V8.34954C30.8149 8.93376 31.2731 9.42364 31.8577 9.4431C31.8695 9.44352 31.8814 9.44352 31.8937 9.44352C32.4779 9.44352 32.9525 8.9693 32.9525 8.38466V5.56087C36.8656 5.71443 40.6941 6.74538 44.1563 8.57545L42.7446 11.0464C42.4523 11.5532 42.6257 12.2013 43.1325 12.4936C43.6398 12.786 44.2879 12.6121 44.5802 12.1053L45.9919 9.64827C49.2827 11.7262 52.0777 14.5001 54.1815 17.7744L51.7245 19.1861C51.2177 19.4784 51.0438 20.1265 51.3361 20.6333C51.6284 21.1406 52.2765 21.314 52.7833 21.0217L55.2403 19.61C57.0704 23.0717 58.1009 26.9007 58.2549 30.8138H55.4311C54.8465 30.8138 54.3718 31.288 54.3718 31.8726C54.3718 32.4573 54.8465 32.9319 55.4311 32.9319H58.2549C57.6732 47.0779 46.0519 58.2572 31.8937 58.2902V58.2834Z" fill="#465A65"/>
<path d="M34.1526 31.8938C34.1526 33.1413 33.1411 34.1528 31.8935 34.1528C30.646 34.1528 29.6345 33.1413 29.6345 31.8938C29.6345 30.6463 30.646 29.6348 31.8935 29.6348C33.1411 29.6348 34.1526 30.6463 34.1526 31.8938Z" fill="white"/>
</g>
<defs>
<clipPath id="clip0">
<rect width="64" height="64" fill="white"/>
</clipPath>
</defs>
</svg>
