<svg width="64" height="64" viewBox="0 0 64 64" fill="none" xmlns="http://www.w3.org/2000/svg">
<g clip-path="url(#clip0)">
<path d="M32.4678 1.56782L36.391 0.0853287C36.8287 -0.0800456 37.3212 -0.00204589 37.6862 0.290453L40.959 2.91282C41.2105 3.11432 41.5269 3.21719 41.8488 3.20194L46.0381 3.00432C46.5055 2.98232 46.9496 3.20869 47.2065 3.59969L49.509 7.10505C49.6859 7.37442 49.955 7.56992 50.2659 7.65492L54.3112 8.76142C54.7625 8.88492 55.115 9.23729 55.2383 9.68854L56.3448 13.7339C56.4298 14.0448 56.6253 14.3139 56.8947 14.4908L60.4001 16.7933C60.7911 17.0501 61.0175 17.4943 60.9955 17.9616L60.7978 22.151C60.7827 22.473 60.8855 22.7892 61.087 23.0407L63.7093 26.3139C64.0018 26.679 64.0798 27.1713 63.9144 27.609L62.4319 31.5322C62.3181 31.8336 62.3181 32.1662 62.4319 32.4677L63.9144 36.3909C64.0798 36.8286 64.0018 37.3211 63.7093 37.6861L61.087 40.9592C60.8855 41.2107 60.7826 41.527 60.7978 41.8489L60.9955 46.0383C61.0175 46.5056 60.7911 46.9498 60.4001 47.2066L56.8947 49.5091C56.6253 49.686 56.4298 49.9551 56.3448 50.266L55.2383 54.3114C55.1148 54.7626 54.7625 55.1151 54.3112 55.2385L50.2659 56.345C49.955 56.43 49.6859 56.6255 49.509 56.8949L47.2065 60.4002C46.9496 60.7912 46.5055 61.0176 46.0381 60.9956L41.8488 60.798C41.527 60.7828 41.2105 60.8856 40.959 61.0871L37.6859 63.7094C37.3208 64.002 36.8284 64.0799 36.3908 63.9146L32.4676 62.4321C32.1662 62.3182 31.8336 62.3182 31.5321 62.4321L27.6088 63.9146C27.1712 64.0799 26.6787 64.002 26.3137 63.7094L23.0406 61.0871C22.7891 60.8856 22.4727 60.7827 22.1509 60.798L17.9615 60.9956C17.4941 61.0176 17.05 60.7912 16.7931 60.4002L14.4906 56.8949C14.3138 56.6255 14.0446 56.43 13.7338 56.345L9.68841 55.2385C9.23716 55.115 8.88466 54.7626 8.76128 54.3114L7.65479 50.266C7.56979 49.9551 7.37429 49.686 7.10491 49.5091L3.59955 47.2065C3.20855 46.9496 2.98218 46.5055 3.00418 46.0382L3.2018 41.8488C3.21705 41.5269 3.11418 41.2105 2.91268 40.959L0.290816 37.6857C-0.00168263 37.3206 -0.0796823 36.8282 0.085692 36.3906L1.56819 32.4673C1.68206 32.166 1.68206 31.8333 1.56819 31.5318L0.085692 27.6086C-0.0796823 27.171 -0.00168263 26.6785 0.290816 26.3135L2.91318 23.0406C3.11468 22.7891 3.21755 22.4727 3.2023 22.1509L3.00468 17.9615C2.98268 17.4941 3.20905 17.05 3.60005 16.7931L7.10541 14.4906C7.37479 14.3138 7.57029 14.0446 7.65529 13.7338L8.76178 9.68842C8.88528 9.23717 9.23766 8.88467 9.6889 8.7613L13.7343 7.6548C14.0451 7.5698 14.3143 7.3743 14.4911 7.10493L16.7936 3.59957C17.0505 3.20857 17.4946 2.98219 17.962 3.00419L22.1514 3.20182C22.4732 3.21707 22.7896 3.11419 23.0411 2.91269L26.3142 0.290328C26.6793 -0.00217091 27.1717 -0.0801706 27.6093 0.0852037L31.5326 1.5677C31.8337 1.6817 32.1664 1.6817 32.4678 1.56782Z" fill="#FFC850"/>
<path d="M41.9874 55.3033C23.6013 55.3033 8.69641 40.3984 8.69641 22.0123C8.69641 17.0882 9.77403 12.4185 11.6928 8.21313L9.6889 8.76138C9.23766 8.88488 8.88516 9.23726 8.76178 9.6885L7.65516 13.7339C7.57016 14.0447 7.37466 14.3139 7.10529 14.4909L3.5998 16.7934C3.2088 17.0502 2.98243 17.4944 3.00443 17.9616L3.20205 22.151C3.21718 22.4728 3.11443 22.7892 2.91293 23.0407L0.290816 26.3138C-0.00168263 26.6789 -0.0796823 27.1713 0.085692 27.6088L1.56819 31.5321C1.68206 31.8334 1.68206 32.1661 1.56819 32.4676L0.085692 36.3908C-0.0796823 36.8284 -0.00168263 37.3209 0.290816 37.6859L2.91318 40.959C3.11468 41.2105 3.21755 41.5269 3.2023 41.8488L3.00468 46.0381C2.98268 46.5055 3.20905 46.9496 3.60005 47.2065L7.10541 49.509C7.37466 49.6859 7.57029 49.955 7.65529 50.2659L8.76191 54.3112C8.88541 54.7625 9.23778 55.115 9.68903 55.2385L13.7344 56.3451C14.0453 56.4301 14.3144 56.6256 14.4913 56.895L16.7938 60.4003C17.0506 60.7913 17.4947 61.0176 17.9621 60.9957L22.1514 60.7981C22.4734 60.783 22.7897 60.8857 23.0412 61.0872L26.3143 63.7096C26.6795 64.0019 27.1718 64.0801 27.6093 63.9147L31.5326 62.4321C31.8339 62.3182 32.1666 62.3182 32.4681 62.4321L36.3913 63.9147C36.8289 64.0801 37.3214 64.0021 37.6863 63.7096L40.9594 61.0872C41.2109 60.8858 41.5273 60.783 41.8493 60.7981L46.0385 60.9957C46.5059 61.0177 46.95 60.7913 47.2069 60.4003L49.5094 56.895C49.6862 56.6257 49.9554 56.4301 50.2662 56.3451L54.3116 55.2385C54.7628 55.115 55.1153 54.7626 55.2387 54.3112L55.787 52.3074C51.5814 54.2258 46.9115 55.3033 41.9874 55.3033Z" fill="#E1A546"/>
<path d="M31.9996 57.5226C46.0956 57.5226 57.5226 46.0956 57.5226 31.9996C57.5226 17.9036 46.0956 6.47656 31.9996 6.47656C17.9036 6.47656 6.47656 17.9036 6.47656 31.9996C6.47656 46.0956 17.9036 57.5226 31.9996 57.5226Z" fill="#FFDC64"/>
<path d="M44.2712 50.211C44.0515 49.9181 43.7093 49.7472 43.3434 49.7352C29.6477 49.2796 18.6835 38.0388 18.6835 24.2322C18.6835 20.5401 19.4764 17.0379 20.8923 13.8734C21.3404 12.8716 20.221 11.8754 19.3013 12.4741C12.2668 17.0537 7.85493 25.3191 8.83105 34.54C9.9323 44.9424 18.0859 53.4692 28.4287 55.033C34.1376 55.8961 39.4887 54.6447 43.9082 51.9911C44.5317 51.6167 44.7074 50.7929 44.2712 50.211Z" fill="#FFC850"/>
<path d="M24.2321 45.3162H17.5739C16.961 45.3162 16.4641 44.8194 16.4641 44.2065V26.4513C16.4641 25.8384 16.961 25.3416 17.5739 25.3416H24.2321C24.845 25.3416 25.3418 25.8384 25.3418 26.4513V44.2065C25.3418 44.8195 24.845 45.3162 24.2321 45.3162Z" fill="white"/>
<path d="M48.6367 27.8297C48.4922 26.3859 47.1697 25.3416 45.7186 25.3416H36.2724C38.8556 23.2502 40.6096 20.4448 40.8635 18.1375C41.0517 16.4266 39.8687 14.8015 38.1476 14.7855C36.6043 14.7713 35.348 16.0055 35.348 17.5455C35.348 18.5446 33.1795 21.5096 29.1155 22.8289C29.1095 22.8309 29.1038 22.8327 29.0978 22.8347C28.1472 23.1492 27.5613 24.1107 27.5613 25.112V43.0967C27.5613 43.7095 28.0582 44.2064 28.671 44.2064H42.9841C44.0896 44.2064 45.1143 43.4508 45.2918 42.3595C45.518 40.969 44.4507 39.7675 43.1029 39.7675H44.094C45.1995 39.7675 46.2242 39.0119 46.4017 37.9207C46.6278 36.5302 45.5606 35.3287 44.2127 35.3287H45.2038C46.3093 35.3287 47.3341 34.5731 47.5116 33.4818C47.7377 32.0913 46.6705 30.8898 45.3226 30.8898H45.8775C47.5035 30.8902 48.803 29.4905 48.6367 27.8297Z" fill="white"/>
<path d="M41.9872 37.5483C41.3743 37.5483 40.8774 38.0452 40.8774 38.6581C40.8774 39.271 41.3743 39.7678 41.9872 39.7678H43.1024H44.0935C45.199 39.7678 46.2238 39.0122 46.4013 37.921C46.4218 37.7941 46.4205 37.6713 46.4204 37.5483H41.9872Z" fill="#FFFAB4"/>
<path d="M41.9872 33.1096C41.3743 33.1096 40.8774 33.6065 40.8774 34.2194C40.8774 34.8322 41.3743 35.3291 41.9872 35.3291H44.2122H45.2033C46.3088 35.3291 47.3335 34.5735 47.511 33.4822C47.5315 33.3554 47.5303 33.2326 47.5302 33.1096H41.9872Z" fill="#FFFAB4"/>
<path d="M41.9872 28.6709C41.3743 28.6709 40.8774 29.1678 40.8774 29.7806C40.8774 30.3935 41.3743 30.8904 41.9872 30.8904H45.3218H45.8767C47.217 30.8904 48.321 29.9346 48.5802 28.671H41.9872V28.6709Z" fill="#FFFAB4"/>
<path d="M32 41.9873C30.7743 41.9873 29.7806 40.9937 29.7806 39.7679V26.094C29.7806 25.6489 30.047 25.2509 30.4551 25.0734C32.2716 24.283 37.9875 21.2405 38.5894 15.2662C38.4074 15.0757 38.3121 14.9762 38.1301 14.7857C36.5947 14.7808 35.348 16.0114 35.348 17.5458C35.348 18.5449 33.1795 21.5099 29.1155 22.8291C28.1883 23.1335 27.5613 23.9991 27.5613 24.9751V43.097C27.5613 43.7099 28.0582 44.2068 28.671 44.2068H42.9841C44.2091 44.2068 45.3347 43.2792 45.3186 41.9953C45.3157 41.9923 45.3137 41.9904 45.3108 41.9874H32V41.9873Z" fill="#FFFAB4"/>
<path d="M20.903 43.0967C19.6772 43.0967 18.6836 42.1031 18.6836 40.8774V25.3416H17.5739C16.961 25.3416 16.4641 25.8384 16.4641 26.4513V44.2065C16.4641 44.8193 16.961 45.3162 17.5739 45.3162H24.2321C24.845 45.3162 25.3418 44.8193 25.3418 44.2065V43.0967H20.903Z" fill="#FFFAB4"/>
<path d="M20.9028 42.5416C21.822 42.5416 22.5673 41.7964 22.5673 40.8771C22.5673 39.9579 21.822 39.2126 20.9028 39.2126C19.9835 39.2126 19.2383 39.9579 19.2383 40.8771C19.2383 41.7964 19.9835 42.5416 20.9028 42.5416Z" fill="#FFDC64"/>
</g>
<defs>
<clipPath id="clip0">
<rect width="64" height="64" fill="white"/>
</clipPath>
</defs>
</svg>
