<svg width="64" height="64" viewBox="0 0 64 64" fill="none" xmlns="http://www.w3.org/2000/svg">
<g clip-path="url(#clip0)">
<path d="M15.7682 4.81641C16.3175 7.24707 19.2667 8.20508 21.1393 6.56152C21.4557 6.28369 21.9298 6.62793 21.7633 7.01465C20.7784 9.30371 22.6012 11.8125 25.0826 11.5835C25.502 11.5449 25.6832 12.1016 25.3209 12.3169C23.1788 13.5903 23.1788 16.6914 25.3209 17.9644C25.6832 18.1797 25.502 18.7363 25.0826 18.6978C22.6012 18.4688 20.7784 20.9775 21.7633 23.2666C21.9298 23.6538 21.4557 23.9976 21.1393 23.7197C19.2667 22.0762 16.317 23.0347 15.7682 25.4648C15.6754 25.876 15.0899 25.876 14.9972 25.4648C14.4483 23.0342 11.4991 22.0762 9.62607 23.7197C9.30966 23.9976 8.83554 23.6538 9.00204 23.2666C9.98691 20.9775 8.16415 18.4688 5.68271 18.6978C5.26327 18.7363 5.08212 18.1797 5.44443 17.9644C7.58652 16.6914 7.58652 13.5903 5.44443 12.3169C5.08261 12.1016 5.26327 11.5449 5.68271 11.5835C8.16415 11.8125 9.98691 9.30371 9.00204 7.01465C8.83554 6.62793 9.30966 6.28369 9.62607 6.56152C11.4991 8.20508 14.4483 7.24707 14.9972 4.81641C15.0899 4.40527 15.6754 4.40527 15.7682 4.81641Z" fill="#FD8F31"/>
<path d="M25.3208 17.9644C23.1787 16.6914 23.1787 13.5903 25.3208 12.3169C25.6831 12.1021 25.502 11.5449 25.0825 11.584C22.6016 11.813 20.7788 9.30371 21.7632 7.01465C21.9297 6.62793 21.4561 6.28369 21.1392 6.56152C19.2666 8.20557 16.3174 7.24707 15.7681 4.81641C15.6753 4.40527 15.0898 4.40527 14.9971 4.81641C14.7939 5.71533 14.2627 6.41162 13.5791 6.85107C16.0039 8.7998 17.5571 11.7881 17.5571 15.1411C17.5571 18.4937 16.0039 21.4824 13.5791 23.4312C14.2627 23.8701 14.7939 24.5669 14.9971 25.4653C15.0898 25.8765 15.6758 25.8765 15.7681 25.4653C16.3174 23.0347 19.2666 22.0767 21.1392 23.7202C21.4561 23.998 21.9297 23.6543 21.7632 23.2671C20.7788 20.978 22.6016 18.4692 25.0825 18.6982C25.502 18.7368 25.6831 18.1797 25.3208 17.9644Z" fill="#FF7F1F"/>
<path d="M19.7417 15.1406C19.7417 17.5483 17.79 19.4995 15.3823 19.4995C12.9751 19.4995 11.0234 17.5483 11.0234 15.1406C11.0234 12.7334 12.9751 10.7817 15.3823 10.7817C17.79 10.7817 19.7417 12.7334 19.7417 15.1406Z" fill="#FCCF3F"/>
<path d="M47.0015 39.4194V7.77002C47.0015 3.47852 43.5225 0 39.2314 0C34.9399 0 31.4614 3.47852 31.4614 7.77002V39.4194C27.9849 41.8652 25.7134 45.9082 25.7134 50.4819C25.7134 57.9478 31.7656 64 39.2314 64C46.6973 64 52.7495 57.9478 52.7495 50.4819C52.7495 45.9082 50.4775 41.8652 47.0015 39.4194Z" fill="#D8D8D8"/>
<path d="M39.2314 59.5728C34.0835 59.5728 29.8955 55.3843 29.8955 50.2368C29.8955 46.3276 32.3247 42.8472 35.9697 41.4893V7.77002C35.9697 5.97119 37.4326 4.5083 39.2314 4.5083C41.0298 4.5083 42.4932 5.97119 42.4932 7.77002V41.4893C46.1377 42.8467 48.5674 46.3271 48.5674 50.2363C48.5674 55.3843 44.3794 59.5728 39.2314 59.5728Z" fill="#F3E8D7"/>
<path d="M35.9697 13.7339V41.4893C32.3247 42.8467 29.8955 46.3271 29.8955 50.2363C29.8955 55.3843 34.0835 59.5723 39.2314 59.5723C44.3794 59.5723 48.5674 55.3843 48.5674 50.2363C48.5674 46.3271 46.1377 42.8467 42.4932 41.4893V13.7339H35.9697Z" fill="#FC4E51"/>
<path d="M57.7632 22.5273H52.1602C51.6265 22.5273 51.1943 22.0947 51.1943 21.5615C51.1943 21.0283 51.6265 20.5957 52.1602 20.5957H57.7632C58.2964 20.5957 58.729 21.0283 58.729 21.5615C58.729 22.0947 58.2964 22.5273 57.7632 22.5273Z" fill="#0D6E9A"/>
<path d="M54.7041 14.6997H52.1602C51.6265 14.6997 51.1943 14.2671 51.1943 13.7339C51.1943 13.2007 51.6265 12.7681 52.1602 12.7681H54.7041C55.2373 12.7681 55.6699 13.2007 55.6699 13.7339C55.6699 14.2671 55.2373 14.6997 54.7041 14.6997Z" fill="#0D6E9A"/>
<path d="M55.6055 6.87207H52.1602C51.6265 6.87207 51.1943 6.43945 51.1943 5.90625C51.1943 5.37305 51.6265 4.94043 52.1602 4.94043H55.6055C56.1392 4.94043 56.5713 5.37305 56.5713 5.90625C56.5713 6.43945 56.1392 6.87207 55.6055 6.87207Z" fill="#0D6E9A"/>
<path d="M55.6055 38.1826H52.1602C51.6265 38.1826 51.1943 37.75 51.1943 37.2168C51.1943 36.6831 51.6265 36.251 52.1602 36.251H55.6055C56.1392 36.251 56.5713 36.6831 56.5713 37.2168C56.5713 37.75 56.1392 38.1826 55.6055 38.1826Z" fill="#0D6E9A"/>
<path d="M54.7041 30.355H52.1602C51.6265 30.355 51.1943 29.9224 51.1943 29.3892C51.1943 28.856 51.6265 28.4233 52.1602 28.4233H54.7041C55.2373 28.4233 55.6699 28.856 55.6699 29.3892C55.6699 29.9224 55.2373 30.355 54.7041 30.355Z" fill="#0D6E9A"/>
<path d="M42.4932 41.4893V13.7339H35.9697V41.4893C35.9697 41.4893 40.479 43.5815 40.479 50.2363C40.479 53.9365 38.3154 57.1406 35.187 58.6504C36.4111 59.2412 37.7832 59.5723 39.231 59.5723C44.3789 59.5723 48.5674 55.3843 48.5674 50.2363C48.5674 46.3271 46.1377 42.8472 42.4932 41.4893Z" fill="#E5394B"/>
</g>
<defs>
<clipPath id="clip0">
<rect width="64" height="64" fill="white"/>
</clipPath>
</defs>
</svg>
