<svg width="64" height="64" viewBox="0 0 64 64" fill="none" xmlns="http://www.w3.org/2000/svg">
<path d="M14.0061 52.99H49.9961C51.0961 52.99 51.9961 52.09 51.9961 50.99V55.979C51.9961 57.079 51.0961 57.979 49.9961 57.979H40.0061L36.0061 57.999H28.0171L24.0061 57.979H14.0061C12.9061 57.979 12.0061 57.079 12.0061 55.979V50.99C12.0061 52.09 12.9061 52.99 14.0061 52.99Z" fill="#CCD1D9"/>
<path d="M41.0171 33.87C41.0171 33.91 41.0061 33.94 41.0061 33.98V35.98V36H23.0061V35.98V28.57C26.5761 27.549 29.4161 24.78 30.5171 21.23C36.4561 22.4 40.9461 27.61 41.0171 33.87Z" fill="#FFCE54"/>
<path d="M44.0061 33.98V35.98V36H41.0061V35.98V33.98C41.0061 33.94 41.0171 33.91 41.0171 33.87C40.9471 27.61 36.4561 22.4 30.5171 21.23C29.4161 24.78 26.5771 27.549 23.0061 28.57V35.98V36H20.0061V35.98V26C24.4261 25.99 28.0061 22.41 28.0061 17.99C36.8461 17.99 44.0171 25.139 44.0271 33.98H44.0061Z" fill="#FC6E51"/>
<path d="M48.0061 36H44.0061V35.98V33.98H44.0271C44.0171 25.139 36.8461 17.99 28.0061 17.99C28.0061 22.41 24.4261 25.99 20.0061 26V35.98V36H16.0061V12H48.0061V36Z" fill="#E9573F"/>
<path d="M24.126 48.12C25.297 46.95 25.297 45.05 24.126 43.88C22.956 42.71 21.057 42.71 19.887 43.88C18.717 45.05 18.717 46.95 19.887 48.12C21.057 49.29 22.956 49.29 24.126 48.12ZM44.126 48.12C45.296 46.95 45.296 45.05 44.126 43.88C42.956 42.71 41.057 42.71 39.886 43.88C38.706 45.05 38.706 46.95 39.886 48.12C41.057 49.29 42.956 49.29 44.126 48.12ZM51.996 6.98V50.99C51.996 52.09 51.096 52.99 49.996 52.99H14.006C12.906 52.99 12.006 52.09 12.006 50.99V6.98V3C12.006 1.9 11.906 1 13.006 1H49.996C51.096 1 51.996 1.9 51.996 3V6.98ZM48.006 36V12H16.006V36H20.006H23.006H41.006H44.006H48.006Z" fill="#E6E9ED"/>
<path d="M28.009 46.999C27.456 46.999 27.009 46.552 27.009 45.999C27.009 43.242 24.766 40.999 22.009 40.999C19.252 40.999 17.009 43.242 17.009 45.999C17.009 46.552 16.562 46.999 16.009 46.999C15.456 46.999 15.009 46.552 15.009 45.999C15.009 42.14 18.15 38.999 22.009 38.999C25.868 38.999 29.009 42.14 29.009 45.999C29.009 46.552 28.562 46.999 28.009 46.999Z" fill="#CCD1D9"/>
<path d="M48.0061 46.999C47.4531 46.999 47.0061 46.552 47.0061 45.999C47.0061 43.242 44.7631 40.999 42.0061 40.999C39.2491 40.999 37.0061 43.242 37.0061 45.999C37.0061 46.552 36.5591 46.999 36.0061 46.999C35.4531 46.999 35.0061 46.552 35.0061 45.999C35.0061 42.14 38.1471 38.999 42.0061 38.999C45.8651 38.999 49.0061 42.14 49.0061 45.999C49.0061 46.552 48.5591 46.999 48.0061 46.999Z" fill="#CCD1D9"/>
<path d="M40.9931 6H23.0051C22.4521 6 22.0051 5.553 22.0051 5C22.0051 4.447 22.4521 4 23.0051 4H40.9931C41.5461 4 41.9931 4.447 41.9931 5C41.9931 5.553 41.5461 6 40.9931 6Z" fill="#CCD1D9"/>
<path d="M36.0159 9.00098H27.9819C27.4289 9.00098 26.9819 8.55398 26.9819 8.00098C26.9819 7.44798 27.4289 7.00098 27.9819 7.00098H36.0159C36.5689 7.00098 37.0159 7.44798 37.0159 8.00098C37.0159 8.55398 36.5679 9.00098 36.0159 9.00098Z" fill="#CCD1D9"/>
<path d="M22.0081 49.501C23.9416 49.501 25.5091 47.9336 25.5091 46C25.5091 44.0665 23.9416 42.499 22.0081 42.499C20.0745 42.499 18.5071 44.0665 18.5071 46C18.5071 47.9336 20.0745 49.501 22.0081 49.501Z" fill="#DA4453"/>
<path d="M23.7769 48.7669C23.5199 48.7669 23.2639 48.6689 23.0699 48.4739L19.5339 44.9389C19.1439 44.5479 19.1449 43.9159 19.5349 43.5249C19.9259 43.1339 20.5579 43.1339 20.9489 43.5249L24.4839 47.0599C24.8739 47.4509 24.874 48.0829 24.4829 48.4739C24.2879 48.6689 24.0319 48.7669 23.7769 48.7669Z" fill="#ED5565"/>
<path d="M42.0071 49.501C43.9407 49.501 45.5081 47.9336 45.5081 46C45.5081 44.0665 43.9407 42.499 42.0071 42.499C40.0736 42.499 38.5061 44.0665 38.5061 46C38.5061 47.9336 40.0736 49.501 42.0071 49.501Z" fill="#DA4453"/>
<path d="M39.24 47.7701C39.24 47.5121 39.338 47.2561 39.533 47.0631L43.068 43.5261C43.459 43.1371 44.091 43.1371 44.482 43.5281C44.873 43.9191 44.873 44.5511 44.482 44.9421L40.947 48.4771C40.556 48.8661 39.924 48.8661 39.533 48.4751C39.338 48.2791 39.24 48.0231 39.24 47.7701Z" fill="#ED5565"/>
<path d="M27.0171 54.998H25.0061C24.4561 54.998 24.0061 55.443 24.0061 55.988C24.0061 56.533 24.0061 57.428 24.0061 57.978V62V63H25.0061H27.0171H28.0171V62V57.998C28.0171 57.448 28.0171 56.548 28.0171 55.998C28.0171 55.448 27.5661 54.998 27.0171 54.998Z" fill="#656D78"/>
<path d="M40.006 62V57.979C40.006 57.429 40.006 56.534 40.006 55.989C40.006 55.444 39.556 54.999 39.006 54.999H37.006C36.456 54.999 36.006 55.449 36.006 55.999C36.006 56.549 36.006 57.449 36.006 57.999V62H36V63H37.006H39.006H40.011V62H40.006Z" fill="#656D78"/>
</svg>
