<svg width="64" height="64" viewBox="0 0 64 64" fill="none" xmlns="http://www.w3.org/2000/svg">
<g clip-path="url(#clip0)">
<path d="M37.3334 10.6667C37.3334 7.83769 36.2096 5.12458 34.2092 3.12419C32.2088 1.12381 29.4957 0 26.6667 0C23.8378 0 21.1247 1.12381 19.1243 3.12419C17.1239 5.12458 16.0001 7.83769 16.0001 10.6667H21.3334C21.3334 9.61183 21.6462 8.58069 22.2322 7.70363C22.8183 6.82656 23.6512 6.14298 24.6258 5.73931C25.6003 5.33564 26.6727 5.23002 27.7072 5.43581C28.7418 5.6416 29.6921 6.14955 30.438 6.89543C31.1839 7.64131 31.6918 8.59162 31.8976 9.62619C32.1034 10.6608 31.9978 11.7331 31.5941 12.7076C31.1904 13.6822 30.5069 14.5151 29.6298 15.1012C28.7527 15.6872 27.7216 16 26.6667 16H10.6667V21.3333H26.6667C29.4947 21.3302 32.206 20.2053 34.2057 18.2056C36.2054 16.2059 37.3302 13.4947 37.3334 10.6667Z" fill="#99E6FD"/>
<path d="M42.6666 42.6666H21.3333V48H42.6666C43.7214 48 44.7526 48.3127 45.6296 48.8988C46.5067 49.4848 47.1903 50.3178 47.5939 51.2923C47.9976 52.2668 48.1032 53.3392 47.8974 54.3738C47.6917 55.4083 47.1837 56.3586 46.4378 57.1045C45.6919 57.8504 44.7416 58.3583 43.7071 58.5641C42.6725 58.7699 41.6001 58.6643 40.6256 58.2606C39.6511 57.857 38.8181 57.1734 38.2321 56.2963C37.646 55.4193 37.3333 54.3881 37.3333 53.3333H31.9999C31.9999 55.4429 32.6255 57.5052 33.7976 59.2594C34.9696 61.0135 36.6356 62.3806 38.5846 63.188C40.5337 63.9953 42.6784 64.2066 44.7476 63.795C46.8167 63.3834 48.7173 62.3675 50.2091 60.8757C51.7008 59.384 52.7167 57.4834 53.1283 55.4142C53.5399 53.3451 53.3286 51.2004 52.5213 49.2513C51.714 47.3023 50.3468 45.6363 48.5927 44.4643C46.8385 43.2922 44.7763 42.6666 42.6666 42.6666Z" fill="#CCF2FE"/>
<path d="M50.6666 10.6666C47.1316 10.6706 43.7425 12.0766 41.2429 14.5763C38.7433 17.0759 37.3372 20.465 37.3333 24H42.6666C42.6666 22.4177 43.1358 20.871 44.0148 19.5554C44.8939 18.2398 46.1433 17.2144 47.6051 16.6089C49.0669 16.0034 50.6755 15.845 52.2273 16.1537C53.7792 16.4624 55.2046 17.2243 56.3235 18.3431C57.4423 19.4619 58.2042 20.8874 58.5129 22.4392C58.8216 23.9911 58.6631 25.5996 58.0576 27.0614C57.4521 28.5232 56.4268 29.7727 55.1112 30.6517C53.7956 31.5308 52.2489 32 50.6666 32H29.3333V37.3333H50.6666C54.2028 37.3333 57.5942 35.9285 60.0947 33.4281C62.5952 30.9276 63.9999 27.5362 63.9999 24C63.9999 20.4637 62.5952 17.0724 60.0947 14.5719C57.5942 12.0714 54.2028 10.6666 50.6666 10.6666Z" fill="url(#paint0_linear)"/>
<path d="M0 32H24V37.3333H0V32Z" fill="url(#paint1_linear)"/>
<path d="M5.33325 42.6666H15.9999V48H5.33325V42.6666Z" fill="#CCF2FE"/>
</g>
<defs>
<linearGradient id="paint0_linear" x1="24.6979" y1="45.8136" x2="55.1326" y2="20.2483" gradientUnits="userSpaceOnUse">
<stop stop-color="#34CDFA"/>
<stop offset="1" stop-color="#E8D9F1"/>
</linearGradient>
<linearGradient id="paint1_linear" x1="1004.76" y1="560.39" x2="1249.23" y2="-363.688" gradientUnits="userSpaceOnUse">
<stop stop-color="#34CDFA"/>
<stop offset="1" stop-color="#E8D9F1"/>
</linearGradient>
<clipPath id="clip0">
<rect width="64" height="64" fill="white"/>
</clipPath>
</defs>
</svg>
